<svg xmlns="http://www.w3.org/2000/svg" viewBox="0 0 512 512">
  <defs>
    <linearGradient id="grad" x1="0%" y1="0%" x2="100%" y2="100%">
      <stop offset="0%" style="stop-color:#6366f1;stop-opacity:1" />
      <stop offset="100%" style="stop-color:#4338ca;stop-opacity:1" />
    </linearGradient>
  </defs>
  <path fill="url(#grad)" d="M405.3,166.7c-9.6-69.4-69.2-123.4-141.3-123.4c-61.9,0-114.7,39.6-135.2,95.3c-5.8-0.9-11.7-1.3-17.7-1.3C50,137.3,1.9,185.4,1.9,246.5c0,61.1,48.1,109.2,109.2,109.2h294.7c58.7,0,106.3-47.6,106.3-106.3C512.1,192.3,465,145.2,406.8,145.2C406.3,152.6,405.3,166.7,405.3,166.7z"/>
  <!-- Gear Icon Overlay -->
   <path fill="white" d="M366.5,246.5c0-11-2-21.6-5.8-31.4l34.8-26.6l-28.8-50l-40.2,12.8c-9-7.2-19-12.8-29.8-16.6V88h-57.6v45.6c-11.4,3.8-21.8,9.8-31.2,17.2L167.3,138L138.5,188l35.2,26.6c-3.6,9.4-5.6,19.8-5.6,30.4s2.6,21,6.2,30.8L139.1,304l28.8,50l40.6-13.4c9,7.6,19.2,13.4,30.2,17.2v46.2h57.6v-45.2c11.2-3.8,21.6-9.6,31-16.8l39.6,13.2l28.8-50l-34.6-27C364.5,268.5,366.5,257.7,366.5,246.5z M264,286.5c-22.1,0-40-17.9-40-40s17.9-40,40-40c22.1,0,40,17.9,40,40S286.1,286.5,264,286.5z"/>
</svg>